<svg fill="none" height="48" viewBox="0 0 196 48" width="196" xmlns="http://www.w3.org/2000/svg"><path d="m9.53931 33.5209 12.34909 14.4534 13.165-5.4299-6.25-16.3541z" fill="#21a952"/><path d="m.375 14.8591 6.03932-1.3581 7.66228-12.688073z" fill="#c4e22c"/><path d="m.375 14.8605.74886 19.7453 8.41547-1.0849-3.12501-20.0186z" fill="#82ce40"/><path d="m1.1239 34.6058 14.1146 12.8916 6.65.4769-12.34913-14.4534z" fill="#40b93c"/><path d="m14.0766.812927 5.7688 6.988923-13.43537 5.70055z" fill="#82ce40"/><path d="m19.8454 7.80188 8.958 18.38842-19.26408 7.3306-3.12929-20.0199z" fill="#40b93c"/><path d="m21.8884 47.9743 12.5527-1.9676.6123-3.4623z" fill="#197746"/><path d="m14.0852.812927 17.574 1.154623-11.8138 5.8343z" fill="#53c049"/><path d="m45.1588 17.3676-13.4996-15.40007-11.8109 5.83288 8.9551 18.38989z" fill="#2dad57"/><path d="m45.1588 17.3677.615 18.7999-10.7203 6.3768-6.25-16.3541z" fill="#2b9768"/><path d="m45.7738 36.1676-11.3312 9.8391.6108-3.4625z" fill="#357835"/><path d="m14.0852.81293 17.574 1.15462 2.3748-1.96755z" fill="#40b93c"/><path d="m47.5364 13.5024-13.5038-13.5024-2.3733 1.96755 13.4995 15.40015z" fill="#09a048"/><path d="m47.5364 13.5023.0698 18.6533-1.8324 4.002-.615-18.79z" fill="#0b895a"/><path d="m9.53931 33.5209 12.34909 14.4534 13.165-5.4299-6.25-16.3541z" fill="#21a952"/><path d="m.375 14.8591 6.03932-1.3581 7.66228-12.688073z" fill="#c4e22c"/><path d="m.375 14.8605.74886 19.7453 8.41547-1.0849-3.12501-20.0186z" fill="#82ce40"/><path d="m1.1239 34.6058 14.1146 12.8916 6.65.4769-12.34913-14.4534z" fill="#40b93c"/><path d="m14.0766.812927 5.7688 6.988923-13.43537 5.70055z" fill="#82ce40"/><path d="m19.8454 7.80188 8.958 18.38842-19.26408 7.3306-3.12929-20.0199z" fill="#40b93c"/><path d="m21.8884 47.9743 12.5527-1.9676.6123-3.4623z" fill="#197746"/><path d="m14.0852.812927 17.574 1.154623-11.8138 5.8343z" fill="#53c049"/><path d="m45.1588 17.3676-13.4996-15.40007-11.8109 5.83288 8.9551 18.38989z" fill="#2dad57"/><path d="m45.1588 17.3677.615 18.7999-10.7203 6.3768-6.25-16.3541z" fill="#2b9768"/><path d="m45.7738 36.1676-11.3312 9.8391.6108-3.4625z" fill="#357835"/><path d="m14.0852.81293 17.574 1.15462 2.3748-1.96755z" fill="#40b93c"/><path d="m47.5364 13.5024-13.5038-13.5024-2.3733 1.96755 13.4995 15.40015z" fill="#09a048"/><path d="m47.5364 13.5023.0698 18.6533-1.8324 4.002-.615-18.79z" fill="#0b895a"/><g fill="#fff"><path d="m64.848 28.352h4.416c1.2 0 2.28.152 3.24.456s1.784.776 2.472 1.416c.688.624 1.216 1.424 1.584 2.4s.552 2.136.552 3.48-.184 2.512-.552 3.504-.888 1.816-1.56 2.472c-.672.64-1.48 1.12-2.424 1.44-.928.32-1.968.48-3.12.48h-4.608zm4.2 12.792c.672 0 1.28-.088 1.824-.264s1.008-.456 1.392-.84c.384-.4.68-.92.888-1.56.224-.64.336-1.432.336-2.376 0-.928-.112-1.704-.336-2.328-.208-.64-.504-1.144-.888-1.512-.384-.384-.848-.656-1.392-.816s-1.152-.24-1.824-.24h-.672v9.936z"/><path d="m86.472 37.52-.36-1.44c-.224-.784-.44-1.616-.648-2.496s-.416-1.728-.624-2.544h-.096c-.192.832-.392 1.688-.6 2.568-.192.864-.4 1.688-.624 2.472l-.384 1.44zm.72 2.76h-4.776l-.96 3.72h-3.6l4.896-15.648h4.248l4.896 15.648h-3.744z"/><path d="m98.3818 44.288c-1.024 0-2.048-.184-3.072-.552-1.008-.384-1.912-.952-2.712-1.704l2.016-2.424c.56.48 1.176.872 1.848 1.176.688.304 1.36.456 2.016.456.736 0 1.28-.136 1.6322-.408.368-.272.552-.64.552-1.104 0-.24-.056-.448-.168-.624-.096-.176-.248-.328-.456-.456-.1922-.144-.4322-.272-.7202-.384-.272-.128-.576-.264-.912-.408l-2.04-.864c-.4-.16-.792-.368-1.176-.624-.368-.256-.704-.552-1.008-.888-.288-.352-.52-.752-.696-1.2-.176-.464-.264-.984-.264-1.56 0-.64.136-1.24.408-1.8.272-.576.656-1.072 1.152-1.488.496-.432 1.08-.768 1.752-1.008.688-.24 1.44-.36 2.256-.36.912 0 1.8082.176 2.6882.528.896.352 1.68.864 2.352 1.536l-1.8 2.232c-.512-.4-1.024-.704-1.536-.912-.5122-.224-1.0802-.336-1.7042-.336-.608 0-1.096.128-1.464.384-.352.24-.528.584-.528 1.032 0 .24.056.448.168.624.128.16.296.312.504.456.224.128.48.256.768.384.288.112.6.24.936.384l2.0162.816c.96.384 1.712.912 2.256 1.584.56.672.84 1.56.84 2.664 0 .656-.136 1.28-.408 1.872-.256.576-.64 1.088-1.152 1.536-.496.432-1.112.784-1.848 1.056-.736.256-1.5682.384-2.4962.384z"/><path d="m106.942 28.352h3.528v6.024h5.4v-6.024h3.552v15.648h-3.552v-6.528h-5.4v6.528h-3.528z"/><path d="m123.114 28.352h5.352c.816 0 1.568.064 2.256.192.704.112 1.312.32 1.824.624.528.304.936.704 1.224 1.2.304.496.456 1.12.456 1.872 0 .352-.048.704-.144 1.056s-.232.68-.408.984-.392.576-.648.816c-.24.24-.52.416-.84.528v.096c.4.096.768.248 1.104.456.336.192.632.44.888.744s.456.664.6 1.08c.144.4.216.864.216 1.392 0 .8-.16 1.488-.48 2.064-.304.576-.736 1.056-1.296 1.44-.544.368-1.184.648-1.92.84-.736.176-1.528.264-2.376.264h-5.808zm5.184 6.264c.864 0 1.488-.168 1.872-.504.4-.336.6-.784.6-1.344 0-.608-.2-1.04-.6-1.296s-1.016-.384-1.848-.384h-1.68v3.528zm.336 6.648c1.936 0 2.904-.704 2.904-2.112 0-.688-.24-1.176-.72-1.464-.48-.304-1.208-.456-2.184-.456h-1.992v4.032z"/><path d="m144.005 44.288c-1.056 0-2.024-.184-2.904-.552-.864-.384-1.608-.928-2.232-1.632s-1.112-1.56-1.464-2.568c-.336-1.008-.504-2.152-.504-3.432s.168-2.416.504-3.408c.352-1.008.84-1.848 1.464-2.52.624-.688 1.368-1.208 2.232-1.56.88-.368 1.848-.552 2.904-.552s2.016.184 2.88.552c.88.352 1.632.872 2.256 1.56s1.104 1.536 1.44 2.544c.352.992.528 2.12.528 3.384 0 1.28-.176 2.424-.528 3.432-.336 1.008-.816 1.864-1.44 2.568s-1.376 1.248-2.256 1.632c-.864.368-1.824.552-2.88.552zm0-3.048c1.072 0 1.92-.456 2.544-1.368.624-.928.936-2.184.936-3.768 0-1.568-.312-2.792-.936-3.672s-1.472-1.32-2.544-1.32-1.92.44-2.544 1.32-.936 2.104-.936 3.672c0 1.584.312 2.84.936 3.768.624.912 1.472 1.368 2.544 1.368z"/><path d="m160.441 37.52-.36-1.44c-.224-.784-.44-1.616-.648-2.496s-.416-1.728-.624-2.544h-.096c-.192.832-.392 1.688-.6 2.568-.192.864-.4 1.688-.624 2.472l-.384 1.44zm.72 2.76h-4.776l-.96 3.72h-3.6l4.896-15.648h4.248l4.896 15.648h-3.744z"/><path d="m171.103 35.552h1.824c.928 0 1.632-.192 2.112-.576.496-.4.744-.984.744-1.752s-.248-1.304-.744-1.608c-.48-.304-1.184-.456-2.112-.456h-1.824zm4.944 8.448-3-5.64h-1.944v5.64h-3.528v-15.648h5.64c.832 0 1.608.08 2.328.24.736.16 1.376.432 1.92.816.544.368.976.864 1.296 1.488s.48 1.4.48 2.328c0 1.152-.256 2.104-.768 2.856-.496.736-1.168 1.288-2.016 1.656l3.552 6.264z"/><path d="m182.293 28.352h4.416c1.2 0 2.28.152 3.24.456s1.784.776 2.472 1.416c.688.624 1.216 1.424 1.584 2.4s.552 2.136.552 3.48-.184 2.512-.552 3.504-.888 1.816-1.56 2.472c-.672.64-1.48 1.12-2.424 1.44-.928.32-1.968.48-3.12.48h-4.608zm4.2 12.792c.672 0 1.28-.088 1.824-.264s1.008-.456 1.392-.84c.384-.4.68-.92.888-1.56.224-.64.336-1.432.336-2.376 0-.928-.112-1.704-.336-2.328-.208-.64-.504-1.144-.888-1.512-.384-.384-.848-.656-1.392-.816s-1.152-.24-1.824-.24h-.672v9.936z"/></g><path d="m64.386 8.264h2.898l1.89 5.22c.12.348.234.708.342 1.08.108.36.222.72.342 1.08h.072c.12-.36.228-.72.324-1.08.108-.372.222-.732.342-1.08l1.854-5.22h2.88v11.736h-2.412v-4.302c0-.288.012-.606.036-.954s.054-.696.09-1.044c.036-.36.072-.708.108-1.044.036-.348.072-.666.108-.954h-.072l-.954 2.79-1.674 4.482h-1.458l-1.674-4.482-.936-2.79h-.072c.036.288.072.606.108.954.036.336.072.684.108 1.044.036.348.066.696.09 1.044s.036.666.036.954v4.302h-2.376z" fill="#9e9594"/><path d="m82.8669 20.216c-.792 0-1.518-.138-2.178-.414-.648-.288-1.206-.696-1.674-1.224s-.834-1.17-1.098-1.926c-.252-.756-.378-1.614-.378-2.574s.126-1.812.378-2.556c.264-.756.63-1.386 1.098-1.89.468-.516 1.026-.906 1.674-1.17.66-.276 1.386-.414 2.178-.414s1.512.138 2.16.414c.66.264 1.224.654 1.692 1.17s.828 1.152 1.08 1.908c.264.744.396 1.59.396 2.538 0 .96-.132 1.818-.396 2.574-.252.756-.612 1.398-1.08 1.926s-1.032.936-1.692 1.224c-.648.276-1.368.414-2.16.414zm0-2.286c.804 0 1.44-.342 1.908-1.026.468-.696.702-1.638.702-2.826 0-1.176-.234-2.094-.702-2.754s-1.104-.99-1.908-.99-1.44.33-1.908.99-.702 1.578-.702 2.754c0 1.188.234 2.13.702 2.826.468.684 1.104 1.026 1.908 1.026z" fill="#9e9594"/><path d="m92.1778 10.496h-3.222v-2.232h9.108v2.232h-3.222v9.504h-2.664z" fill="#9e9594"/><path d="m104.154 20.216c-.792 0-1.518-.138-2.178-.414-.648-.288-1.206-.696-1.674-1.224s-.834-1.17-1.098-1.926c-.252-.756-.378-1.614-.378-2.574s.126-1.812.378-2.556c.264-.756.63-1.386 1.098-1.89.468-.516 1.026-.906 1.674-1.17.66-.276 1.386-.414 2.178-.414s1.512.138 2.16.414c.66.264 1.224.654 1.692 1.17s.828 1.152 1.08 1.908c.264.744.396 1.59.396 2.538 0 .96-.132 1.818-.396 2.574-.252.756-.612 1.398-1.08 1.926s-1.032.936-1.692 1.224c-.648.276-1.368.414-2.16.414zm0-2.286c.804 0 1.44-.342 1.908-1.026.468-.696.702-1.638.702-2.826 0-1.176-.234-2.094-.702-2.754s-1.104-.99-1.908-.99-1.44.33-1.908.99-.702 1.578-.702 2.754c0 1.188.234 2.13.702 2.826.468.684 1.104 1.026 1.908 1.026z" fill="#9e9594"/></svg>